<mxfile host="app.diagrams.net" modified="2022-12-10T03:27:13.743Z" agent="5.0 (Macintosh; Intel Mac OS X 10_15_7) AppleWebKit/537.36 (KHTML, like Gecko) Chrome/107.0.0.0 Safari/537.36" version="20.6.2" etag="wZC1Y_H4opfkVJlYfyZG" type="github">
  <diagram id="iqCdhvxMYSrewAM_8BOw" name="페이지-1">
    <mxGraphModel dx="1196" dy="793" grid="1" gridSize="10" guides="1" tooltips="1" connect="1" arrows="1" fold="1" page="1" pageScale="1" pageWidth="827" pageHeight="1169" math="0" shadow="0">
      <root>
        <mxCell id="0" />
        <mxCell id="1" parent="0" />
        <mxCell id="Wc-SWShn24vuKzKYvufr-1" value="이용자" style="shape=umlActor;verticalLabelPosition=bottom;verticalAlign=top;html=1;" vertex="1" parent="1">
          <mxGeometry x="70" y="520" width="30" height="60" as="geometry" />
        </mxCell>
        <mxCell id="Wc-SWShn24vuKzKYvufr-4" value="운동행 서비스" style="shape=umlFrame;whiteSpace=wrap;html=1;fillColor=none;width=96;height=40;" vertex="1" parent="1">
          <mxGeometry x="130" y="170" width="986" height="710" as="geometry" />
        </mxCell>
        <mxCell id="Wc-SWShn24vuKzKYvufr-15" value="&amp;lt;&amp;lt;include&amp;gt;&amp;gt;" style="edgeStyle=orthogonalEdgeStyle;rounded=0;orthogonalLoop=1;jettySize=auto;html=1;exitX=0.5;exitY=0;exitDx=0;exitDy=0;entryX=0.5;entryY=1;entryDx=0;entryDy=0;dashed=1;" edge="1" parent="1" source="Wc-SWShn24vuKzKYvufr-8" target="Wc-SWShn24vuKzKYvufr-10">
          <mxGeometry relative="1" as="geometry" />
        </mxCell>
        <mxCell id="Wc-SWShn24vuKzKYvufr-8" value="소셜 로그인" style="rounded=1;whiteSpace=wrap;html=1;arcSize=40;fontColor=#000000;fillColor=#ffffc0;strokeColor=#ff0000;" vertex="1" parent="1">
          <mxGeometry x="190" y="530" width="120" height="40" as="geometry" />
        </mxCell>
        <mxCell id="Wc-SWShn24vuKzKYvufr-10" value="인증" style="rounded=1;whiteSpace=wrap;html=1;arcSize=40;fontColor=#000000;fillColor=#ffffc0;strokeColor=#ff0000;" vertex="1" parent="1">
          <mxGeometry x="190" y="415" width="120" height="40" as="geometry" />
        </mxCell>
        <mxCell id="Wc-SWShn24vuKzKYvufr-16" value="피드 목록" style="rounded=1;whiteSpace=wrap;html=1;arcSize=40;fontColor=#000000;fillColor=#ffffc0;strokeColor=#ff0000;" vertex="1" parent="1">
          <mxGeometry x="440" y="260" width="120" height="40" as="geometry" />
        </mxCell>
        <mxCell id="Wc-SWShn24vuKzKYvufr-17" value="회원 검색" style="rounded=1;whiteSpace=wrap;html=1;arcSize=40;fontColor=#000000;fillColor=#ffffc0;strokeColor=#ff0000;" vertex="1" parent="1">
          <mxGeometry x="430" y="360" width="120" height="40" as="geometry" />
        </mxCell>
        <mxCell id="Wc-SWShn24vuKzKYvufr-18" value="운동 통계" style="rounded=1;whiteSpace=wrap;html=1;arcSize=40;fontColor=#000000;fillColor=#ffffc0;strokeColor=#ff0000;" vertex="1" parent="1">
          <mxGeometry x="430" y="480" width="120" height="40" as="geometry" />
        </mxCell>
        <mxCell id="Wc-SWShn24vuKzKYvufr-19" value="내 기록 페이지" style="rounded=1;whiteSpace=wrap;html=1;arcSize=40;fontColor=#000000;fillColor=#ffffc0;strokeColor=#ff0000;" vertex="1" parent="1">
          <mxGeometry x="420" y="570" width="120" height="40" as="geometry" />
        </mxCell>
        <mxCell id="Wc-SWShn24vuKzKYvufr-20" value="알림" style="rounded=1;whiteSpace=wrap;html=1;arcSize=40;fontColor=#000000;fillColor=#ffffc0;strokeColor=#ff0000;" vertex="1" parent="1">
          <mxGeometry x="430" y="770" width="120" height="40" as="geometry" />
        </mxCell>
        <mxCell id="Wc-SWShn24vuKzKYvufr-21" value="설정" style="rounded=1;whiteSpace=wrap;html=1;arcSize=40;fontColor=#000000;fillColor=#ffffc0;strokeColor=#ff0000;" vertex="1" parent="1">
          <mxGeometry x="420" y="670" width="120" height="40" as="geometry" />
        </mxCell>
        <mxCell id="Wc-SWShn24vuKzKYvufr-27" value="피드 상세" style="rounded=1;whiteSpace=wrap;html=1;arcSize=40;fontColor=#000000;fillColor=#ffffc0;strokeColor=#ff0000;" vertex="1" parent="1">
          <mxGeometry x="640" y="260" width="120" height="40" as="geometry" />
        </mxCell>
        <mxCell id="Wc-SWShn24vuKzKYvufr-28" value="" style="endArrow=none;html=1;rounded=0;entryX=0;entryY=0.5;entryDx=0;entryDy=0;exitX=1;exitY=0.5;exitDx=0;exitDy=0;" edge="1" parent="1" source="Wc-SWShn24vuKzKYvufr-8" target="Wc-SWShn24vuKzKYvufr-16">
          <mxGeometry width="50" height="50" relative="1" as="geometry">
            <mxPoint x="560" y="520" as="sourcePoint" />
            <mxPoint x="610" y="470" as="targetPoint" />
          </mxGeometry>
        </mxCell>
        <mxCell id="Wc-SWShn24vuKzKYvufr-29" value="" style="endArrow=none;html=1;rounded=0;exitX=1;exitY=0.5;exitDx=0;exitDy=0;entryX=0;entryY=0.5;entryDx=0;entryDy=0;" edge="1" parent="1" source="Wc-SWShn24vuKzKYvufr-8" target="Wc-SWShn24vuKzKYvufr-17">
          <mxGeometry width="50" height="50" relative="1" as="geometry">
            <mxPoint x="560" y="520" as="sourcePoint" />
            <mxPoint x="610" y="470" as="targetPoint" />
          </mxGeometry>
        </mxCell>
        <mxCell id="Wc-SWShn24vuKzKYvufr-30" value="" style="endArrow=none;html=1;rounded=0;exitX=1;exitY=0.5;exitDx=0;exitDy=0;entryX=0;entryY=0.5;entryDx=0;entryDy=0;" edge="1" parent="1" source="Wc-SWShn24vuKzKYvufr-8" target="Wc-SWShn24vuKzKYvufr-18">
          <mxGeometry width="50" height="50" relative="1" as="geometry">
            <mxPoint x="560" y="520" as="sourcePoint" />
            <mxPoint x="610" y="470" as="targetPoint" />
          </mxGeometry>
        </mxCell>
        <mxCell id="Wc-SWShn24vuKzKYvufr-31" value="" style="endArrow=none;html=1;rounded=0;exitX=1;exitY=0.5;exitDx=0;exitDy=0;entryX=0;entryY=0.5;entryDx=0;entryDy=0;" edge="1" parent="1" source="Wc-SWShn24vuKzKYvufr-8" target="Wc-SWShn24vuKzKYvufr-19">
          <mxGeometry width="50" height="50" relative="1" as="geometry">
            <mxPoint x="560" y="520" as="sourcePoint" />
            <mxPoint x="610" y="470" as="targetPoint" />
          </mxGeometry>
        </mxCell>
        <mxCell id="Wc-SWShn24vuKzKYvufr-32" value="" style="endArrow=none;html=1;rounded=0;exitX=1;exitY=0.5;exitDx=0;exitDy=0;entryX=0;entryY=0.5;entryDx=0;entryDy=0;" edge="1" parent="1" source="Wc-SWShn24vuKzKYvufr-8" target="Wc-SWShn24vuKzKYvufr-21">
          <mxGeometry width="50" height="50" relative="1" as="geometry">
            <mxPoint x="560" y="520" as="sourcePoint" />
            <mxPoint x="610" y="470" as="targetPoint" />
          </mxGeometry>
        </mxCell>
        <mxCell id="Wc-SWShn24vuKzKYvufr-33" value="" style="endArrow=none;html=1;rounded=0;exitX=1;exitY=0.5;exitDx=0;exitDy=0;entryX=0;entryY=0.25;entryDx=0;entryDy=0;" edge="1" parent="1" source="Wc-SWShn24vuKzKYvufr-8" target="Wc-SWShn24vuKzKYvufr-20">
          <mxGeometry width="50" height="50" relative="1" as="geometry">
            <mxPoint x="560" y="520" as="sourcePoint" />
            <mxPoint x="610" y="470" as="targetPoint" />
          </mxGeometry>
        </mxCell>
        <mxCell id="Wc-SWShn24vuKzKYvufr-34" style="edgeStyle=orthogonalEdgeStyle;rounded=0;orthogonalLoop=1;jettySize=auto;html=1;exitX=0.5;exitY=1;exitDx=0;exitDy=0;" edge="1" parent="1" source="Wc-SWShn24vuKzKYvufr-18" target="Wc-SWShn24vuKzKYvufr-18">
          <mxGeometry relative="1" as="geometry" />
        </mxCell>
        <mxCell id="Wc-SWShn24vuKzKYvufr-37" value="좋아요 누르기/해제" style="rounded=1;whiteSpace=wrap;html=1;arcSize=40;fontColor=#000000;fillColor=#ffffc0;strokeColor=#ff0000;" vertex="1" parent="1">
          <mxGeometry x="840" y="200" width="120" height="40" as="geometry" />
        </mxCell>
        <mxCell id="Wc-SWShn24vuKzKYvufr-49" value="&amp;lt;&amp;lt;extend&amp;gt;&amp;gt;" style="endArrow=classic;html=1;rounded=0;dashed=1;exitX=0;exitY=0.5;exitDx=0;exitDy=0;entryX=1;entryY=0.5;entryDx=0;entryDy=0;" edge="1" parent="1" source="Wc-SWShn24vuKzKYvufr-37" target="Wc-SWShn24vuKzKYvufr-27">
          <mxGeometry width="50" height="50" relative="1" as="geometry">
            <mxPoint x="670" y="270" as="sourcePoint" />
            <mxPoint x="720" y="220" as="targetPoint" />
            <Array as="points" />
          </mxGeometry>
        </mxCell>
        <mxCell id="Wc-SWShn24vuKzKYvufr-50" value="회원 기록 페이지" style="rounded=1;whiteSpace=wrap;html=1;arcSize=40;fontColor=#000000;fillColor=#ffffc0;strokeColor=#ff0000;" vertex="1" parent="1">
          <mxGeometry x="640" y="340" width="120" height="40" as="geometry" />
        </mxCell>
        <mxCell id="Wc-SWShn24vuKzKYvufr-51" value="최근 검색어 관리" style="rounded=1;whiteSpace=wrap;html=1;arcSize=40;fontColor=#000000;fillColor=#ffffc0;strokeColor=#ff0000;" vertex="1" parent="1">
          <mxGeometry x="640" y="400" width="120" height="40" as="geometry" />
        </mxCell>
        <mxCell id="Wc-SWShn24vuKzKYvufr-52" value="회원 친구 목록" style="rounded=1;whiteSpace=wrap;html=1;arcSize=40;fontColor=#000000;fillColor=#ffffc0;strokeColor=#ff0000;" vertex="1" parent="1">
          <mxGeometry x="840" y="340" width="120" height="40" as="geometry" />
        </mxCell>
        <mxCell id="Wc-SWShn24vuKzKYvufr-53" value="기간 선택" style="rounded=1;whiteSpace=wrap;html=1;arcSize=40;fontColor=#000000;fillColor=#ffffc0;strokeColor=#ff0000;" vertex="1" parent="1">
          <mxGeometry x="640" y="480" width="120" height="40" as="geometry" />
        </mxCell>
        <mxCell id="Wc-SWShn24vuKzKYvufr-54" value="&amp;lt;&amp;lt;include&amp;gt;&amp;gt;" style="endArrow=classic;html=1;rounded=0;dashed=1;exitX=0;exitY=0.5;exitDx=0;exitDy=0;entryX=1;entryY=0.5;entryDx=0;entryDy=0;" edge="1" parent="1" source="Wc-SWShn24vuKzKYvufr-53" target="Wc-SWShn24vuKzKYvufr-18">
          <mxGeometry width="50" height="50" relative="1" as="geometry">
            <mxPoint x="510" y="530" as="sourcePoint" />
            <mxPoint x="560" y="480" as="targetPoint" />
          </mxGeometry>
        </mxCell>
        <mxCell id="Wc-SWShn24vuKzKYvufr-55" value="좋아요 알림" style="rounded=1;whiteSpace=wrap;html=1;arcSize=40;fontColor=#000000;fillColor=#ffffc0;strokeColor=#ff0000;" vertex="1" parent="1">
          <mxGeometry x="620" y="745" width="120" height="40" as="geometry" />
        </mxCell>
        <mxCell id="Wc-SWShn24vuKzKYvufr-56" value="친구요청 수락, 거절" style="rounded=1;whiteSpace=wrap;html=1;arcSize=40;fontColor=#000000;fillColor=#ffffc0;strokeColor=#ff0000;" vertex="1" parent="1">
          <mxGeometry x="620" y="820" width="120" height="40" as="geometry" />
        </mxCell>
        <mxCell id="Wc-SWShn24vuKzKYvufr-59" value="&amp;lt;&amp;lt;include&amp;gt;&amp;gt;" style="endArrow=classic;html=1;rounded=0;dashed=1;exitX=0;exitY=0.5;exitDx=0;exitDy=0;entryX=1;entryY=0.5;entryDx=0;entryDy=0;" edge="1" parent="1" source="Wc-SWShn24vuKzKYvufr-55" target="Wc-SWShn24vuKzKYvufr-20">
          <mxGeometry width="50" height="50" relative="1" as="geometry">
            <mxPoint x="510" y="590" as="sourcePoint" />
            <mxPoint x="560" y="540" as="targetPoint" />
          </mxGeometry>
        </mxCell>
        <mxCell id="Wc-SWShn24vuKzKYvufr-64" value="&amp;lt;&amp;lt;include&amp;gt;&amp;gt;" style="endArrow=classic;html=1;rounded=0;dashed=1;exitX=0;exitY=0.5;exitDx=0;exitDy=0;entryX=1;entryY=0.75;entryDx=0;entryDy=0;" edge="1" parent="1" source="Wc-SWShn24vuKzKYvufr-56" target="Wc-SWShn24vuKzKYvufr-20">
          <mxGeometry width="50" height="50" relative="1" as="geometry">
            <mxPoint x="650" y="640" as="sourcePoint" />
            <mxPoint x="540" y="800" as="targetPoint" />
          </mxGeometry>
        </mxCell>
        <mxCell id="Wc-SWShn24vuKzKYvufr-65" value="친구 요청" style="rounded=1;whiteSpace=wrap;html=1;arcSize=40;fontColor=#000000;fillColor=#ffffc0;strokeColor=#ff0000;" vertex="1" parent="1">
          <mxGeometry x="840" y="430" width="120" height="40" as="geometry" />
        </mxCell>
        <mxCell id="Wc-SWShn24vuKzKYvufr-66" value="" style="endArrow=none;html=1;rounded=0;exitX=1;exitY=0.5;exitDx=0;exitDy=0;entryX=0;entryY=0.5;entryDx=0;entryDy=0;" edge="1" parent="1" source="Wc-SWShn24vuKzKYvufr-16" target="Wc-SWShn24vuKzKYvufr-27">
          <mxGeometry width="50" height="50" relative="1" as="geometry">
            <mxPoint x="660" y="530" as="sourcePoint" />
            <mxPoint x="710" y="480" as="targetPoint" />
          </mxGeometry>
        </mxCell>
        <mxCell id="Wc-SWShn24vuKzKYvufr-67" value="" style="endArrow=none;html=1;rounded=0;entryX=0;entryY=0.5;entryDx=0;entryDy=0;exitX=1;exitY=0.5;exitDx=0;exitDy=0;" edge="1" parent="1" source="Wc-SWShn24vuKzKYvufr-17" target="Wc-SWShn24vuKzKYvufr-50">
          <mxGeometry width="50" height="50" relative="1" as="geometry">
            <mxPoint x="660" y="530" as="sourcePoint" />
            <mxPoint x="710" y="480" as="targetPoint" />
          </mxGeometry>
        </mxCell>
        <mxCell id="Wc-SWShn24vuKzKYvufr-68" value="&amp;lt;&amp;lt;extend&amp;gt;&amp;gt;&lt;br&gt;" style="endArrow=classic;html=1;rounded=0;entryX=1;entryY=0.5;entryDx=0;entryDy=0;exitX=0;exitY=0.5;exitDx=0;exitDy=0;dashed=1;" edge="1" parent="1" source="Wc-SWShn24vuKzKYvufr-51" target="Wc-SWShn24vuKzKYvufr-17">
          <mxGeometry width="50" height="50" relative="1" as="geometry">
            <mxPoint x="660" y="530" as="sourcePoint" />
            <mxPoint x="710" y="480" as="targetPoint" />
            <Array as="points" />
          </mxGeometry>
        </mxCell>
        <mxCell id="Wc-SWShn24vuKzKYvufr-70" value="" style="endArrow=none;html=1;rounded=0;entryX=0;entryY=0.5;entryDx=0;entryDy=0;exitX=1;exitY=0.5;exitDx=0;exitDy=0;" edge="1" parent="1" source="Wc-SWShn24vuKzKYvufr-50" target="Wc-SWShn24vuKzKYvufr-52">
          <mxGeometry width="50" height="50" relative="1" as="geometry">
            <mxPoint x="660" y="530" as="sourcePoint" />
            <mxPoint x="710" y="480" as="targetPoint" />
          </mxGeometry>
        </mxCell>
        <mxCell id="Wc-SWShn24vuKzKYvufr-71" value="&amp;lt;&amp;lt;extend&amp;gt;&amp;gt;" style="endArrow=classic;html=1;rounded=0;entryX=0.5;entryY=1;entryDx=0;entryDy=0;exitX=0.5;exitY=0;exitDx=0;exitDy=0;dashed=1;" edge="1" parent="1" source="Wc-SWShn24vuKzKYvufr-65" target="Wc-SWShn24vuKzKYvufr-52">
          <mxGeometry width="50" height="50" relative="1" as="geometry">
            <mxPoint x="660" y="530" as="sourcePoint" />
            <mxPoint x="710" y="480" as="targetPoint" />
          </mxGeometry>
        </mxCell>
        <mxCell id="Wc-SWShn24vuKzKYvufr-72" value="&amp;lt;&amp;lt;extend&amp;gt;&amp;gt;" style="endArrow=classic;html=1;rounded=0;dashed=1;entryX=1;entryY=0.5;entryDx=0;entryDy=0;exitX=0;exitY=0.5;exitDx=0;exitDy=0;" edge="1" parent="1" source="Wc-SWShn24vuKzKYvufr-65" target="Wc-SWShn24vuKzKYvufr-50">
          <mxGeometry width="50" height="50" relative="1" as="geometry">
            <mxPoint x="660" y="530" as="sourcePoint" />
            <mxPoint x="710" y="480" as="targetPoint" />
          </mxGeometry>
        </mxCell>
        <mxCell id="Wc-SWShn24vuKzKYvufr-73" style="edgeStyle=orthogonalEdgeStyle;rounded=0;orthogonalLoop=1;jettySize=auto;html=1;exitX=0.5;exitY=1;exitDx=0;exitDy=0;dashed=1;" edge="1" parent="1" source="Wc-SWShn24vuKzKYvufr-19" target="Wc-SWShn24vuKzKYvufr-19">
          <mxGeometry relative="1" as="geometry" />
        </mxCell>
        <mxCell id="Wc-SWShn24vuKzKYvufr-76" value="" style="endArrow=none;html=1;rounded=0;" edge="1" parent="1" source="Wc-SWShn24vuKzKYvufr-1">
          <mxGeometry width="50" height="50" relative="1" as="geometry">
            <mxPoint x="560" y="570" as="sourcePoint" />
            <mxPoint x="190" y="550" as="targetPoint" />
          </mxGeometry>
        </mxCell>
        <mxCell id="Wc-SWShn24vuKzKYvufr-77" value="피드 작성" style="rounded=1;whiteSpace=wrap;html=1;arcSize=40;fontColor=#000000;fillColor=#ffffc0;strokeColor=#ff0000;" vertex="1" parent="1">
          <mxGeometry x="440" y="200" width="120" height="40" as="geometry" />
        </mxCell>
        <mxCell id="Wc-SWShn24vuKzKYvufr-78" value="" style="endArrow=none;html=1;rounded=0;entryX=0;entryY=0.5;entryDx=0;entryDy=0;exitX=1;exitY=0.5;exitDx=0;exitDy=0;" edge="1" parent="1" source="Wc-SWShn24vuKzKYvufr-10" target="Wc-SWShn24vuKzKYvufr-77">
          <mxGeometry width="50" height="50" relative="1" as="geometry">
            <mxPoint x="560" y="570" as="sourcePoint" />
            <mxPoint x="610" y="520" as="targetPoint" />
          </mxGeometry>
        </mxCell>
        <mxCell id="Wc-SWShn24vuKzKYvufr-89" value="&amp;lt;&amp;lt;extend&amp;gt;&amp;gt;" style="edgeStyle=orthogonalEdgeStyle;rounded=0;orthogonalLoop=1;jettySize=auto;html=1;exitX=0;exitY=0.5;exitDx=0;exitDy=0;entryX=1;entryY=0.5;entryDx=0;entryDy=0;dashed=1;" edge="1" parent="1" source="Wc-SWShn24vuKzKYvufr-79" target="Wc-SWShn24vuKzKYvufr-19">
          <mxGeometry relative="1" as="geometry" />
        </mxCell>
        <mxCell id="Wc-SWShn24vuKzKYvufr-79" value="피드 수정,삭제" style="rounded=1;whiteSpace=wrap;html=1;arcSize=40;fontColor=#000000;fillColor=#ffffc0;strokeColor=#ff0000;" vertex="1" parent="1">
          <mxGeometry x="630" y="570" width="120" height="40" as="geometry" />
        </mxCell>
        <mxCell id="Wc-SWShn24vuKzKYvufr-80" value="피드 수정, 삭제" style="rounded=1;whiteSpace=wrap;html=1;arcSize=40;fontColor=#000000;fillColor=#ffffc0;strokeColor=#ff0000;" vertex="1" parent="1">
          <mxGeometry x="840" y="260" width="120" height="40" as="geometry" />
        </mxCell>
        <mxCell id="Wc-SWShn24vuKzKYvufr-81" value="&amp;lt;&amp;lt;extend&amp;gt;&amp;gt;" style="endArrow=classic;html=1;rounded=0;exitX=0;exitY=0.5;exitDx=0;exitDy=0;dashed=1;" edge="1" parent="1" source="Wc-SWShn24vuKzKYvufr-80">
          <mxGeometry width="50" height="50" relative="1" as="geometry">
            <mxPoint x="560" y="580" as="sourcePoint" />
            <mxPoint x="760" y="280" as="targetPoint" />
          </mxGeometry>
        </mxCell>
        <mxCell id="Wc-SWShn24vuKzKYvufr-82" value="좋아요 받은 피드 상세" style="rounded=1;whiteSpace=wrap;html=1;arcSize=40;fontColor=#000000;fillColor=#ffffc0;strokeColor=#ff0000;" vertex="1" parent="1">
          <mxGeometry x="790" y="745" width="120" height="40" as="geometry" />
        </mxCell>
        <mxCell id="Wc-SWShn24vuKzKYvufr-83" value="친구 기록 페이지" style="rounded=1;whiteSpace=wrap;html=1;arcSize=40;fontColor=#000000;fillColor=#ffffc0;strokeColor=#ff0000;" vertex="1" parent="1">
          <mxGeometry x="790" y="820" width="120" height="40" as="geometry" />
        </mxCell>
        <mxCell id="Wc-SWShn24vuKzKYvufr-86" value="" style="endArrow=none;html=1;rounded=0;entryX=0;entryY=0.5;entryDx=0;entryDy=0;exitX=1;exitY=0.5;exitDx=0;exitDy=0;" edge="1" parent="1" source="Wc-SWShn24vuKzKYvufr-55" target="Wc-SWShn24vuKzKYvufr-82">
          <mxGeometry width="50" height="50" relative="1" as="geometry">
            <mxPoint x="440" y="580" as="sourcePoint" />
            <mxPoint x="490" y="530" as="targetPoint" />
          </mxGeometry>
        </mxCell>
        <mxCell id="Wc-SWShn24vuKzKYvufr-87" value="" style="endArrow=none;html=1;rounded=0;entryX=0;entryY=0.5;entryDx=0;entryDy=0;exitX=1;exitY=0.5;exitDx=0;exitDy=0;" edge="1" parent="1" source="Wc-SWShn24vuKzKYvufr-56" target="Wc-SWShn24vuKzKYvufr-83">
          <mxGeometry width="50" height="50" relative="1" as="geometry">
            <mxPoint x="440" y="580" as="sourcePoint" />
            <mxPoint x="490" y="530" as="targetPoint" />
          </mxGeometry>
        </mxCell>
        <mxCell id="Wc-SWShn24vuKzKYvufr-91" value="프로필 수정, 알림 설정, 문의하기, 로그아웃, 약관및 정책, 오픈소스, 회원 탈퇴" style="rounded=1;whiteSpace=wrap;html=1;arcSize=40;fontColor=#000000;fillColor=#ffffc0;strokeColor=#ff0000;" vertex="1" parent="1">
          <mxGeometry x="600" y="670" width="260" height="40" as="geometry" />
        </mxCell>
        <mxCell id="Wc-SWShn24vuKzKYvufr-94" value="" style="endArrow=none;html=1;rounded=0;entryX=0;entryY=0.5;entryDx=0;entryDy=0;exitX=1;exitY=0.5;exitDx=0;exitDy=0;" edge="1" parent="1" source="Wc-SWShn24vuKzKYvufr-21" target="Wc-SWShn24vuKzKYvufr-91">
          <mxGeometry width="50" height="50" relative="1" as="geometry">
            <mxPoint x="580" y="580" as="sourcePoint" />
            <mxPoint x="630" y="530" as="targetPoint" />
          </mxGeometry>
        </mxCell>
      </root>
    </mxGraphModel>
  </diagram>
</mxfile>
